# xmcd
#
# Track frame offsets: 
#        150
#        11511
#        23442
#        34659
#        46447
#        58899
#        72842
#        87362
#        97906
#        108060
#        123951
#        136686
#
# Disc length: 2049 seconds
#
# Revision: 3
# Processed by: cddbd v1.5.2PL0 Copyright (c) Steve Scherf et al.
# Submitted via: ExactAudioCopy v1.0b1
#
DISCID=8b07ff0c
DTITLE=Niemen - Od poczatku CD3 - SUKCES
DYEAR=2002
DGENRE=Blues
TTITLE0=Plonaca stodola
TTITLE1=Gdzie mak sie czerwieni
TTITLE2=Wloczega
TTITLE3=Narodziny milosci
TTITLE4=Allilah
TTITLE5=Najdluzsza noc
TTITLE6=Sukces
TTITLE7=Jezeli
TTITLE8=Spizowy krzyk
TTITLE9=Tyle jest drog
TTITLE10=Niepotrzebni
TTITLE11=Kleczac przed toba
EXTD=
EXTT0=
EXTT1=
EXTT2=
EXTT3=
EXTT4=
EXTT5=
EXTT6=
EXTT7=
EXTT8=
EXTT9=
EXTT10=
EXTT11=
PLAYORDER=
